HIERARCHY
ROOT Hips
{
	OFFSET 0.00000 0.00000 0.00000
	CHANNELS 6 Xposition Yposition Zposition Zrotation Yrotation Xrotation 
	JOINT LHipJoint
	{
		OFFSET 0 0 0
		CHANNELS 3 Zrotation Yrotation Xrotation
		JOINT LeftHip
		{
			OFFSET 1.75344 -1.53157 0.77399
			CHANNELS 3 Zrotation Yrotation Xrotation
			JOINT LeftKnee
			{
				OFFSET 2.25415 -6.19323 0.00000
				CHANNELS 3 Zrotation Yrotation Xrotation
				JOINT LeftAnkle
				{
					OFFSET 2.30342 -6.32861 0.00000
					CHANNELS 3 Zrotation Yrotation Xrotation
					JOINT LeftToe
					{
						OFFSET 0.10958 -0.30108 1.49206
						CHANNELS 3 Zrotation Yrotation Xrotation
						End Site
						{
							OFFSET 0.00000 -0.00000 0.77783
						}
					}
				}
			}
		}
	}
	JOINT RHipJoint
	{
		OFFSET 0 0 0
		CHANNELS 3 Zrotation Yrotation Xrotation
		JOINT RightHip
		{
			OFFSET -1.81912 -1.53156 0.77399
			CHANNELS 3 Zrotation Yrotation Xrotation
			JOINT RightKnee
			{
				OFFSET -2.22882 -6.12365 0.00000
				CHANNELS 3 Zrotation Yrotation Xrotation
				JOINT RightAnkle
				{
					OFFSET -2.21943 -6.09785 0.00000
					CHANNELS 3 Zrotation Yrotation Xrotation
					JOINT RightToe
					{
						OFFSET -0.18931 -0.52012 1.59379
						CHANNELS 3 Zrotation Yrotation Xrotation
						End Site
						{
							OFFSET -0.00000 -0.00000 0.84686
						}
					}
				}
			}
		}
	}
	JOINT lowerback
	{
		OFFSET 0 0 0
		CHANNELS 3 Zrotation Yrotation Xrotation
		JOINT Chest
		{
			OFFSET -0.00200 1.66634 -0.14248
			CHANNELS 3 Zrotation Yrotation Xrotation
			JOINT Chest2
			{
				OFFSET -0.00875 1.64542 0.09514
				CHANNELS 3 Zrotation Yrotation Xrotation
				JOINT lowerneck
				{
					OFFSET 0 0 0
					CHANNELS 3 Zrotation Yrotation Xrotation
					JOINT Neck
					{
						OFFSET 0.02257 1.59605 0.00839
						CHANNELS 3 Zrotation Yrotation Xrotation
						JOINT Head
						{
							OFFSET -0.10214 1.57530 -0.23335
							CHANNELS 3 Zrotation Yrotation Xrotation
							End Site
							{
								OFFSET -0.03588 1.60717 -0.08062
							}
						}
					}
				}
				JOINT LeftCollar
				{
					OFFSET 0 0 0
					CHANNELS 3 Zrotation Yrotation Xrotation
					JOINT LeftShoulder
					{
						OFFSET 2.54983 1.10186 0.40078
CHANNELS 3 Zrotation Xrotation Yrotation
						JOINT LeftElbow
						{
OFFSET 0 -4.288400 0.000000
CHANNELS 3 Zrotation Xrotation Yrotation
							JOINT LeftWrist
							{
OFFSET 0 -3.065520 -0.000000
CHANNELS 3 Zrotation Xrotation Yrotation
								JOINT lhand
								{
									OFFSET 0 0 0
CHANNELS 3 Zrotation Xrotation Yrotation
									JOINT LFingers
									{
OFFSET 0 -0.753040 0.000000
CHANNELS 3 Zrotation Xrotation Yrotation
										End Site
										{
OFFSET 0 -0.607120 0.000000
										}
									}
								}
								JOINT LThumb
								{
OFFSET 0 0.000000 0.000000
CHANNELS 3 Zrotation Xrotation Yrotation
									End Site
									{
OFFSET 0 -0.616390 0.616390
									}
								}
							}
						}
					}
				}
				JOINT RightCollar
				{
					OFFSET 0 0 0
					CHANNELS 3 Zrotation Yrotation Xrotation
					JOINT RightShoulder
					{
						OFFSET -2.60909 1.35448 0.21802
CHANNELS 3 Zrotation Xrotation Yrotation
						JOINT RightElbow
						{
OFFSET 0 -4.521720 -0.000000
CHANNELS 3 Zrotation Xrotation Yrotation
							JOINT RightWrist
							{
OFFSET 0 -2.891400 0.000000
CHANNELS 3 Zrotation Xrotation Yrotation
								JOINT rhand
								{
									OFFSET 0 0 0
CHANNELS 3 Zrotation Xrotation Yrotation
									JOINT RFingers
									{
OFFSET 0 -0.680540 0.000000
CHANNELS 3 Zrotation Xrotation Yrotation
										End Site
										{
OFFSET 0 -0.548670 0.000000
										}
									}
								}
								JOINT RThumb
								{
OFFSET 0 0.000000 0.000000
CHANNELS 3 Zrotation Xrotation Yrotation
									End Site
									{
OFFSET 0 -0.557050 0.557050
									}
								}
							}
						}
					}
				}
			}
		}
	}
}
MOTION
Frames: 6
Frame Time: 0.008333333333333333
7.562800 15.172200 41.560900 -178.542000 1.966800 179.681000 0.000000 0.000000 0.000000 -27.743700 -21.683100 0.693200 2.388900 9.633000 27.796300 1.812200 11.927600 -32.102000 2.552700 -9.933200 -28.760600 0.000000 0.000000 0.000000 24.382700 19.698000 3.107000 -1.972300 -8.808100 25.197000 0.482000 -23.510500 -29.917200 -0.342700 3.761800 -10.407400 1.358600 2.201500 5.423700 0.339200 3.268400 -5.021700 -0.819800 1.596600 -8.269700 -8.053600 -2.668900 -6.632100 8.746800 -4.682500 15.823800 3.752600 -2.368700 6.252700 0.000000 0.000000 0.000000 3.966800 15.948600 -36.055900 22.276900 -33.288600 6.737200 6.656800 7.163900 33.076400 0.000000 0.000000 0.000000 -7.125000 0.000000 0.000000 -14.173300 -2.388800 -15.217300 0.000000 0.000000 0.000000 -5.746800 14.620900 37.331800 -19.768900 -30.362900 -5.414100 4.115000 8.955800 57.473800 0.000000 0.000000 0.000000 7.125000 0.000000 -0.000000 87.129800 70.781100 -66.588600
7.531974 15.169904 41.546042 -178.956449 2.284650 179.908122 0.000000 0.000000 0.000000 -28.199005 -21.405231 0.508681 2.344869 9.550246 27.532260 1.887342 11.435755 -32.191278 2.592084 -10.003430 -28.987868 0.000000 0.000000 0.000000 23.541284 19.592216 2.371189 -2.067042 -9.004247 25.808629 0.423743 -23.060104 -29.633015 -0.450160 4.300118 -11.923268 0.938408 2.299026 5.183003 0.210939 3.358420 -5.121666 -0.723294 1.665541 -8.250510 -8.134849 -2.664217 -6.566818 8.882551 -4.707047 15.861084 3.809164 -2.381804 6.259391 0.000000 0.000000 0.000000 3.898619 15.704644 -35.562154 21.992775 -32.968858 6.581881 7.817128 6.440979 33.681842 0.000000 0.000000 0.000000 -7.125000 0.000000 0.000000 -13.572833 -3.117993 -14.699989 0.000000 0.000000 0.000000 -5.851245 14.862325 37.625630 -19.767114 -30.360712 -5.413131 -0.481427 10.878286 57.147463 0.000000 0.000000 0.000000 7.125000 0.000000 0.000000 84.910657 72.309374 -66.145401
7.491973 15.162413 41.531480 -178.905264 2.456911 179.941584 0.000000 0.000000 0.000000 -28.238812 -21.156988 0.484118 2.322656 9.508008 27.397886 2.014333 10.791661 -32.485463 2.563256 -9.952078 -28.821581 0.000000 0.000000 0.000000 23.289645 19.413292 1.860595 -2.160316 -9.192210 26.398625 0.372267 -22.682444 -29.424956 -0.522052 4.630419 -12.857351 1.120662 2.330786 5.192320 0.208063 3.421746 -5.162829 -0.837358 1.686287 -8.289250 -8.162560 -2.693898 -6.617111 8.935185 -4.766563 15.962794 3.826066 -2.410665 6.307330 0.000000 0.000000 0.000000 4.009051 15.731671 -35.548425 21.901319 -32.865362 6.532237 9.003969 6.237491 33.644389 0.000000 0.000000 0.000000 -7.125000 0.000000 0.000000 -12.920068 -3.236385 -13.981100 0.000000 0.000000 0.000000 -5.929278 14.931862 37.167531 -19.752781 -30.343273 -5.405847 1.041819 9.721869 57.981365 0.000000 0.000000 0.000000 7.125000 0.000000 0.000000 87.830033 71.849056 -68.595558
7.451783 15.165999 41.519155 -178.903947 2.845450 179.929659 0.000000 0.000000 0.000000 -28.446832 -21.050428 0.758546 2.267886 9.402960 27.064238 2.075657 10.423614 -32.595103 2.118150 -9.106969 -26.131198 0.000000 0.000000 0.000000 22.805182 18.786290 0.899455 -2.308994 -9.481245 27.313299 0.172519 -21.412678 -28.997882 -0.459453 4.347575 -12.056759 1.230530 2.367959 5.275206 0.273632 3.486565 -5.156948 -0.841383 1.712826 -8.328296 -8.440895 -2.700728 -6.666411 9.043065 -4.754832 15.985815 3.908876 -2.411584 6.330791 0.000000 0.000000 0.000000 3.786749 15.794871 -34.862451 21.980157 -32.954423 6.575098 8.368473 6.542246 33.252383 0.000000 0.000000 0.000000 -7.125000 0.000000 0.000000 -13.242281 -2.772682 -14.246431 0.000000 0.000000 0.000000 -6.263229 15.001517 37.099677 -19.787633 -30.385650 -5.423497 -0.639053 10.925693 58.051116 0.000000 0.000000 0.000000 7.125000 0.000000 0.000000 87.700804 72.421787 -69.143440
7.428235 15.173341 41.517551 -179.426631 2.878047 180.146990 0.000000 0.000000 0.000000 -28.908982 -20.789417 0.628043 2.197081 9.265096 26.628115 2.121664 9.899329 -32.513827 2.285756 -9.436071 -27.170285 0.000000 0.000000 0.000000 21.730925 17.969343 -0.521352 -2.497698 -9.833325 28.438967 0.045617 -20.392642 -28.474602 -0.511765 4.584562 -12.727578 0.578149 2.302999 5.320573 0.170101 3.339140 -5.258696 -0.574852 1.676280 -8.498018 -8.520419 -2.665986 -6.572094 9.108801 -4.684555 15.761869 3.948998 -2.375012 6.240344 0.000000 0.000000 0.000000 3.711450 15.751418 -34.172798 21.956104 -32.927394 6.561976 8.442078 6.562479 33.480852 0.000000 0.000000 0.000000 -7.125000 0.000000 0.000000 -13.217115 -3.003137 -14.268347 0.000000 0.000000 0.000000 -6.434313 15.041783 36.848150 -19.759217 -30.351185 -5.409138 -5.470407 14.615796 57.078392 0.000000 0.000000 0.000000 7.125000 0.000000 0.000000 83.666340 74.035968 -66.905891
7.402222 15.173153 41.510723 -179.505270 3.086943 180.087738 0.000000 0.000000 0.000000 -29.056209 -20.514025 0.951782 2.107950 9.087225 26.068814 2.137631 9.748641 -32.509013 2.183176 -9.236666 -26.539245 0.000000 0.000000 0.000000 21.350248 17.535824 -1.589724 -2.755778 -10.287402 29.913965 -0.046744 -19.649573 -28.140610 -0.578949 4.872230 -13.544631 0.464226 2.383374 5.503397 0.077207 3.425381 -5.236757 -0.628339 1.718389 -8.581296 -8.490321 -2.699198 -6.123494 9.363508 -4.751487 15.177339 4.022001 -2.395048 5.989406 0.000000 0.000000 0.000000 4.057428 15.355470 -34.125196 21.727646 -32.667827 6.438183 7.530742 6.283353 33.872176 0.000000 0.000000 0.000000 -7.125000 0.000000 0.000000 -13.739974 -3.265707 -14.927432 0.000000 0.000000 0.000000 -6.245723 15.009374 35.892888 -19.572378 -30.123699 -5.315099 -5.396088 14.792472 56.520501 0.000000 0.000000 0.000000 7.125000 0.000000 0.000000 81.735909 73.962118 -64.898011
